<?xml version="1.0" encoding="iso-8859-1"?>
<!-- Generator: Adobe Illustrator 16.0.0, SVG Export Plug-In . SVG Version: 6.00 Build 0)  -->
<!DOCTYPE svg PUBLIC "-//W3C//DTD SVG 1.1//EN" "http://www.w3.org/Graphics/SVG/1.1/DTD/svg11.dtd">
<svg version="1.1" id="Capa_1" 
	xmlns="http://www.w3.org/2000/svg" 
	xmlns:xlink="http://www.w3.org/1999/xlink" x="0px" y="0px" width="98.048px" height="98.048px" viewBox="0 0 98.048 98.048" style="enable-background:new 0 0 98.048 98.048;" xml:space="preserve">
	<title>Zombie</title>
	<desc>Silhouette of a zombie</desc>
	<g>
		<path d="M43.682,10.593c0.004-2.225-0.683-4.287-1.853-5.992h-3.59v-3.27C36.724,0.488,34.982,0.003,33.125,0
			c-4.115-0.007-7.677,2.342-9.43,5.771l2.369,1.924H22.94c-0.257,0.911-0.406,1.867-0.408,2.86
			c-0.011,5.839,4.714,10.583,10.555,10.594C38.927,21.16,43.671,16.434,43.682,10.593z"/>
		<path d="M46.649,33.737c9.987-0.715,24.771-1.354,24.938-1.362c2.265-0.098,4.021-2.013,3.925-4.278
			c-0.098-2.265-1.998-4.026-4.278-3.925c-0.494,0.021-8.04,0.348-15.97,0.796l-1.156,2.437l-3.995-1.795l-5.114,0.016
			c-1.433-1.792-3.591-3.012-5.664-3.524c0,0-1.114-0.336-2.298-0.312c-1.133,0.023-2.397,0.285-2.397,0.285l-0.031,0.004
			c-3.559,0.865-7.352,3.757-7.361,8.105l-0.004,2.265l1.984-0.947l-1.99,4.195l-0.017,9.514l4.132-1.974l-2.333,4.917l-1.804-0.855
			l-0.011,6.229c-0.003,1.961,0.753,3.631,1.946,4.947l0.013,18.25l1.195-0.182l0.659,4.373l-1.853-1.092l0.008,12.63
			c0.002,3.09,2.508,5.594,5.598,5.594c0.001,0,0.002,0,0.004,0c3.092-0.002,5.596-2.51,5.594-5.603l-0.014-25.942l23.965,15.479
			c0.939,0.605,1.992,0.896,3.032,0.896c1.838,0,3.638-0.903,4.708-2.562c1.678-2.598,0.932-6.062-1.665-7.74l-9.651-6.234
			l-2.026,1.021l-1.743-3.457l-11.095-7.164c0.381-0.777,0.517-5.498,0.594-6.443L46.43,50.34l-5.587-0.279l4.864-1.93l-2.027-4.464
			l2.837-0.016L46.649,33.737z"/>
	</g>
</svg>
